 <svg  version="1.0" xmlns="http://www.w3.org/2000/svg"  width="200.000000pt" height="116.000000pt" viewBox="0 0 200.000000 116.000000"  preserveAspectRatio="xMidYMid meet">  <g transform="translate(0.000000,116.000000) scale(0.100000,-0.100000)" fill="#eb0f0f" stroke="none"> <path d="M924 765 c-31 -34 -32 -35 -111 -35 l-80 0 -7 -31 c-8 -42 -8 -49 4 -49 13 0 50 41 45 50 -2 4 12 6 32 5 25 0 41 -7 51 -23 14 -21 22 -22 134 -22 116 0 121 1 140 25 11 14 28 25 39 25 11 0 30 -11 43 -25 13 -14 33 -25 45 -25 17 0 21 6 21 34 0 37 -15 46 -82 46 -24 0 -38 5 -38 13 -1 32 -19 39 -111 43 l-94 4 -31 -35z m106 -10 c0 -24 -3 -25 -55 -25 l-55 0 16 25 c13 20 25 25 55 25 35 0 39 -3 39 -25z m100 6 c15 -30 14 -31 -40 -31 -47 0 -50 2 -50 25 0 22 4 25 40 25 29 0 42 -5 50 -19z m-158 -59 c4 10 8 9 21 -3 15 -15 13 -17 -17 -16 -21 1 -38 8 -45 20 -11 17 -11 17 13 2 19 -12 25 -13 28 -3z"/> <path d="M782 678 c-15 -15 -15 -51 0 -66 18 -18 43 -15 63 8 37 41 -24 97 -63 58z m53 -28 c0 -29 -38 -41 -48 -16 -10 26 4 47 27 44 15 -2 21 -10 21 -28z"/> <path d="M1136 668 c-13 -19 -14 -25 -2 -43 19 -28 41 -30 65 -6 25 25 26 35 5 55 -22 22 -50 20 -68 -6z m59 -18 c0 -18 -6 -26 -23 -28 -24 -4 -38 18 -28 44 3 9 15 14 28 12 17 -2 23 -10 23 -28z"/> <path d="M1790 247 c0 -64 11 -87 40 -87 12 1 12 2 -2 11 -14 8 -18 24 -18 74 0 37 -4 65 -10 65 -6 0 -10 -28 -10 -63z"/> <path d="M160 230 c0 -40 4 -70 10 -70 6 0 10 11 10 25 0 34 32 33 65 -2 14 -15 25 -24 25 -19 0 5 -7 17 -15 26 -14 15 -14 18 0 30 18 15 20 51 3 68 -7 7 -31 12 -55 12 l-43 0 0 -70z m84 44 c9 -8 16 -19 16 -23 0 -16 -25 -31 -52 -31 -25 0 -28 3 -28 35 0 30 3 35 24 35 14 0 32 -7 40 -16z"/> <path d="M299 284 c-18 -21 -2 -45 41 -59 19 -6 36 -17 38 -23 5 -17 -39 -31 -65 -21 -13 5 -23 5 -23 0 0 -23 72 -28 90 -6 20 24 7 49 -30 61 -23 8 -35 18 -35 30 0 16 7 19 38 17 23 -2 35 1 32 7 -10 16 -71 11 -86 -6z"/> <path d="M480 280 c-26 -26 -26 -74 0 -100 15 -15 31 -20 60 -18 38 3 40 5 40 36 0 17 -4 32 -9 32 -6 0 -8 -9 -6 -20 8 -40 -65 -47 -86 -8 -26 49 18 98 72 79 29 -10 42 2 13 13 -30 12 -64 6 -84 -14z"/> <path d="M1590 237 c0 -29 5 -58 12 -65 15 -15 38 -16 38 -2 0 6 -6 9 -12 8 -9 -2 -14 12 -16 39 -3 35 0 42 12 37 9 -3 16 -1 16 5 0 6 -7 11 -15 11 -8 0 -15 5 -15 10 0 6 -4 10 -10 10 -5 0 -10 -24 -10 -53z"/> <path d="M628 258 c-28 -22 -31 -55 -9 -77 26 -26 53 -27 74 -3 23 26 21 58 -5 76 -27 19 -39 20 -60 4z m60 -37 c5 -32 -23 -54 -49 -40 -19 10 -26 49 -12 63 4 4 19 6 33 4 18 -2 26 -10 28 -27z"/> <path d="M739 249 c-23 -23 -24 -38 -3 -67 16 -23 58 -30 70 -11 4 8 9 7 15 -2 6 -9 9 6 9 41 l0 55 -36 2 c-23 1 -42 -5 -55 -18z m75 -21 c8 -14 6 -22 -10 -39 -18 -17 -25 -19 -43 -10 -20 11 -29 50 -14 65 12 12 56 2 67 -16z"/> <path d="M920 250 c-24 -24 -25 -38 -4 -68 18 -25 64 -27 72 -4 3 11 0 12 -15 3 -28 -14 -56 7 -51 40 2 20 9 24 36 24 34 0 42 9 16 19 -25 9 -33 7 -54 -14z"/> <path d="M1027 252 c-22 -24 -21 -55 1 -75 22 -20 43 -22 60 -5 9 9 12 9 12 -1 0 -7 3 -10 8 -8 4 3 5 29 3 57 -2 30 -6 47 -11 40 -5 -9 -9 -9 -14 -1 -11 17 -41 13 -59 -7z m71 -31 c7 -47 -59 -64 -73 -19 -9 26 13 50 44 46 19 -2 27 -10 29 -27z"/> <path d="M1150 212 c0 -34 4 -51 10 -47 6 4 8 15 5 26 -9 26 3 59 21 59 8 0 14 4 14 9 0 5 -11 8 -25 7 -23 -1 -25 -5 -25 -54z"/> <path d="M1280 235 c0 -16 -3 -40 -6 -52 -4 -14 -2 -23 5 -23 6 0 11 17 11 41 0 32 4 42 20 46 28 8 25 21 -5 19 -21 -1 -25 -6 -25 -31z"/> <path d="M1357 252 c-21 -24 -22 -56 -1 -77 19 -19 65 -16 72 3 3 11 0 12 -16 3 -21 -11 -52 -6 -52 9 0 10 26 20 50 20 28 0 34 19 14 41 -22 24 -46 24 -67 1z m60 -18 c2 -7 -11 -14 -29 -17 -39 -6 -40 -5 -32 17 7 19 55 19 61 0z"/> <path d="M1483 263 c-20 -4 -23 -11 -23 -54 0 -60 18 -65 22 -6 3 38 6 42 31 45 26 3 27 2 27 -42 0 -25 5 -46 10 -46 16 0 12 77 -6 94 -16 16 -21 17 -61 9z"/> <path d="M1669 249 c-23 -23 -24 -38 -3 -67 12 -18 24 -22 55 -20 l39 3 0 50 0 50 -36 2 c-23 1 -42 -5 -55 -18z m69 -28 c5 -32 -23 -54 -49 -40 -19 10 -26 49 -12 63 4 4 19 6 33 4 18 -2 26 -10 28 -27z"/> </g> </svg> 